<?xml version="1.0" encoding="utf-8"?>
<svg id="master-artboard" viewBox="0 0 1400 980" version="1.1" xmlns="http://www.w3.org/2000/svg" x="0px" y="0px" style="enable-background:new 0 0 1400 980;" width="1400px" height="980px"><defs><style id="ee-google-fonts">@import url(https://fonts.googleapis.com/css?family=Roboto:100,100italic,300,300italic,400,400italic,500,500italic,700,700italic,900,900italic);</style></defs><g transform="matrix(4.9, 0, 0, 4.9, -2494.8, 19.599962615966774)"><g id="g-1" transform="matrix(1.958552303314209, 0, 0, 1.958552303314209, -624.9761017608643, -92.02102111816406)">
	<g id="g-2">
		<path class="st0" d="M652,46c27.6,0,50,22.4,50,50s-22.4,50-50,50s-50-22.4-50-50S624.4,46,652,46z" style="fill: rgb(0, 10, 31);"/>
	</g>
</g><path d="M 653.4469604492188 96.99999237060547 L 653.4469604492188 79.93999481201172 L 659.0269775390625 79.93999481201172 C 660.8803100585938 79.93999481201172 662.2736206054688 80.32332611083984 663.2069702148438 81.08999633789062 C 664.1403198242188 81.84999084472656 664.6069946289062 82.97999572753906 664.6069946289062 84.47999572753906 C 664.6069946289062 85.27999114990234 664.3803100585938 85.98665618896484 663.927001953125 86.59999084472656 C 663.4736328125 87.21332550048828 662.8569946289062 87.68666076660156 662.0769653320312 88.01998901367188 C 662.9970092773438 88.27999114990234 663.7236328125 88.76998901367188 664.2569580078125 89.489990234375 C 664.790283203125 90.21665954589844 665.0570068359375 91.07999420166016 665.0570068359375 92.07999420166016 C 665.0570068359375 93.60665893554688 664.5636596679688 94.80998992919922 663.5769653320312 95.68999481201172 C 662.5836181640625 96.56332397460938 661.1802978515625 96.99999237060547 659.3670043945312 96.99999237060547 L 653.4469604492188 96.99999237060547 M 655.6969604492188 89.01998901367188 L 655.6969604492188 95.15999603271484 L 659.4169921875 95.15999603271484 C 660.463623046875 95.15999603271484 661.2869873046875 94.8899917602539 661.886962890625 94.34999084472656 C 662.49365234375 93.80332946777344 662.7969970703125 93.05332946777344 662.7969970703125 92.09999084472656 C 662.7969970703125 90.04666137695312 661.6802978515625 89.01998901367188 659.4469604492188 89.01998901367188 L 655.6969604492188 89.01998901367188 M 655.6969604492188 87.20999145507812 L 659.0969848632812 87.20999145507812 C 660.0836181640625 87.20999145507812 660.8703002929688 86.96665954589844 661.4569702148438 86.47999572753906 C 662.05029296875 85.98665618896484 662.3469848632812 85.31665802001953 662.3469848632812 84.4699935913086 C 662.3469848632812 83.53665924072266 662.0703125 82.85665893554688 661.5169677734375 82.42999267578125 C 660.9703369140625 82.00332641601562 660.1403198242188 81.78999328613281 659.0269775390625 81.78999328613281 L 655.6969604492188 81.78999328613281 L 655.6969604492188 87.20999145507812 ZM 680.9376831054688 91.58999633789062 C 680.7243041992188 93.3899917602539 680.0576782226562 94.77999114990234 678.9376831054688 95.75999450683594 C 677.817626953125 96.739990234375 676.32763671875 97.22999572753906 674.4676513671875 97.22999572753906 C 672.454345703125 97.22999572753906 670.8410034179688 96.50999450683594 669.6276245117188 95.06999206542969 C 668.4076538085938 93.62332916259766 667.7976684570312 91.68999481201172 667.7976684570312 89.26998901367188 L 667.7976684570312 87.6199951171875 C 667.7976684570312 86.03999328613281 668.0809936523438 84.64665985107422 668.6476440429688 83.43999481201172 C 669.2142944335938 82.239990234375 670.0176391601562 81.31665802001953 671.0576782226562 80.66999053955078 C 672.09765625 80.02332305908203 673.3009643554688 79.69999694824219 674.6676635742188 79.69999694824219 C 676.48095703125 79.69999694824219 677.934326171875 80.20665740966797 679.0276489257812 81.2199935913086 C 680.1209716796875 82.23332214355469 680.7576293945312 83.6333236694336 680.9376831054688 85.41999053955078 L 678.6776733398438 85.41999053955078 C 678.4843139648438 84.05998992919922 678.0609741210938 83.07666015625 677.4076538085938 82.4699935913086 C 676.7543334960938 81.85665893554688 675.8410034179688 81.54999542236328 674.6676635742188 81.54999542236328 C 673.2343139648438 81.54999542236328 672.107666015625 82.08332824707031 671.2876586914062 83.14999389648438 C 670.4743041992188 84.20999145507812 670.067626953125 85.7199935913086 670.067626953125 87.67999267578125 L 670.067626953125 89.33999633789062 C 670.067626953125 91.18666076660156 670.454345703125 92.65666198730469 671.2276611328125 93.74999237060547 C 672.0009765625 94.84332275390625 673.0809936523438 95.3899917602539 674.4676513671875 95.3899917602539 C 675.7210083007812 95.3899917602539 676.6809692382812 95.10665893554688 677.34765625 94.53999328613281 C 678.0143432617188 93.97999572753906 678.4576416015625 92.99665832519531 678.6776733398438 91.58999633789062 L 680.9376831054688 91.58999633789062 Z" transform="matrix(5.09532356262207, 0, 0, 5.09532356262207, -2744.522216796875, -471.95611572265625)" style="fill: rgb(83, 255, 141); white-space: pre; color: rgb(51, 51, 51); stroke: rgb(83, 255, 141); stroke-width: 0;"/></g></svg>